<svg aria-hidden="true" style="position:absolute;width:0;height:0" xmlns="http://www.w3.org/2000/svg" overflow="hidden"><defs><symbol id="icon-alarm" viewBox="0 0 32 32"><path d="M30.74 10.003a15.723 15.723 0 0 0-8.243-8.243c1-.787 2.258-1.26 3.629-1.26A5.874 5.874 0 0 1 32 6.374a5.846 5.846 0 0 1-1.26 3.629zM30.5 16.5c0 3.852-1.512 7.343-3.963 9.94l2.029 2.028a1.483 1.483 0 1 1-2.098 2.097l-2.178-2.178A14.426 14.426 0 0 1 16 31c-3.079 0-5.928-.966-8.276-2.603L5.561 30.56a1.5 1.5 0 0 1-2.122-2.121l2.012-2.012C3.008 23.832 1.5 20.345 1.5 16.5 1.5 8.492 7.992 2 16 2s14.5 6.492 14.5 14.5zM16 5C9.649 5 4.5 10.148 4.5 16.5 4.5 22.851 9.649 28 16 28s11.5-5.149 11.5-11.5C27.5 10.148 22.351 5 16 5zm6 13h-6a1.5 1.5 0 0 1-1.5-1.5v-8a1.5 1.5 0 0 1 3 0v6.499H22A1.5 1.5 0 0 1 22 18zM1.287 10.205A5.964 5.964 0 0 1 0 6.5a6 6 0 0 1 6-6c1.4 0 2.685.483 3.706 1.287a16.057 16.057 0 0 0-8.419 8.418z"/></symbol><symbol id="icon-book2" viewBox="0 0 32 32"><path d="M31.065 25.889l-14.471 5.988a1.489 1.489 0 0 1-1.188 0L.935 25.889A1.5 1.5 0 0 1 0 24.5v-23A1.5 1.5 0 0 1 2.073.114h.001l.002.001.013.005L16 5.876 29.911.12l.013-.005.003-.001A1.5 1.5 0 0 1 32 1.5v23a1.5 1.5 0 0 1-.935 1.389zM14.5 8.503L3 3.744v19.753l11.5 4.759V8.503zM29 3.744L17.5 8.503v19.753L29 23.497V3.744zm-9.121 6.89l5.5-2.5a1.5 1.5 0 0 1 1.242 2.731l-5.5 2.5a1.5 1.5 0 0 1-1.242-2.731zm0 5.5l5.5-2.5a1.5 1.5 0 0 1 1.242 2.731l-5.5 2.5a1.5 1.5 0 0 1-1.242-2.731zm0 5.5l5.5-2.5a1.5 1.5 0 0 1 1.242 2.731l-5.5 2.5a1.5 1.5 0 0 1-1.242-2.731zM6 8c.221 0 .431.048.621.134l5.5 2.5a1.501 1.501 0 0 1-1.242 2.731l-5.5-2.5A1.5 1.5 0 0 1 6 8zm0 5.5c.221 0 .431.048.621.134l5.5 2.5a1.501 1.501 0 0 1-1.242 2.731l-5.5-2.5A1.5 1.5 0 0 1 6 13.5zM6 19c.221 0 .431.048.621.134l5.5 2.5a1.501 1.501 0 0 1-1.242 2.731l-5.5-2.5A1.5 1.5 0 0 1 6 19z"/></symbol><symbol id="icon-computer" viewBox="0 0 32 32"><path d="M30 25h-9.5v2.499l2 2.001v.5h-13v-.5l2-2.001V25H2a1.5 1.5 0 0 1-1.5-1.501V3.5A1.5 1.5 0 0 1 2 2h28a1.5 1.5 0 0 1 1.5 1.5v19.999A1.5 1.5 0 0 1 30 25zm-.5-21h-27v17h27V4zM13 11c.414 0 .789.168 1.061.439l.939.939 2.939-2.939a1.5 1.5 0 1 1 2.122 2.122l-4 4a1.499 1.499 0 0 1-2.122 0l-2-2.001A1.5 1.5 0 0 1 13 11z"/></symbol><symbol id="icon-facebook" viewBox="0 0 32 32"><path d="M22.879.245v5.072s-3.738-.373-4.674 1.06c-.512.783-.208 3.077-.254 4.724h4.959c-.418 1.925-.719 3.23-1.028 4.896h-3.958v15.759h-6.87V16.059H8.131v-4.958h2.891c.148-3.626.203-7.217 2.005-9.046C15.05-.002 16.981.246 22.879.246z"/></symbol><symbol id="icon-graph" viewBox="0 0 32 32"><path d="M30.5 32h-29A1.5 1.5 0 0 1 0 30.5V1.499A1.5 1.5 0 0 1 1.5 0h29A1.5 1.5 0 0 1 32 1.499V30.5a1.5 1.5 0 0 1-1.5 1.5zM29 3H3v26h26V3zM5.215 16.239v-.002l4-2.498a1.497 1.497 0 0 1 1.625.035l.006-.008 6.631 4.42 7.638-5.391a1.5 1.5 0 0 1 1.763 2.426h.001l-8.501 6c-.246.179-.55.284-.878.284-.321 0-.618-.101-.861-.272l-6.657-4.438-3.135 1.96a1.5 1.5 0 0 1-1.632-2.516z"/></symbol><symbol id="icon-home" viewBox="0 0 32 32"><path d="M32 17a1.5 1.5 0 0 1-1.5 1.499 1.49 1.49 0 0 1-1.02-.405l-.003.004L16 4.622 2.553 18.068a1.5 1.5 0 1 1-2.092-2.149L14.919 1.46C15.192 1.177 15.575 1 16 1h.001c.026 0 .052 0 .079.002l.012.001.068.005.004.001c.367.04.694.212.933.468l.001-.001L23 7.378V6a1.5 1.5 0 1 1 3 0v4.378l5.598 5.598-.004.004c.25.268.406.625.406 1.02zm-3 2.5V30a1.5 1.5 0 0 1-1.5 1.5h-3v-12h-6v12h-14A1.5 1.5 0 0 1 3 30V19.5l13-13 13 13zm-15.5 0h-6v6h6v-6z"/></symbol><symbol id="icon-image" viewBox="0 0 32 32"><path d="M30.5 32h-29A1.5 1.5 0 0 1 0 30.5v-29A1.5 1.5 0 0 1 1.5 0h29A1.5 1.5 0 0 1 32 1.5v29a1.5 1.5 0 0 1-1.5 1.5zM29 3H3v26h26V3zM6.5 4.5H12a1.5 1.5 0 1 1 0 3H7.5V12a1.5 1.5 0 0 1-3 0V4.5h2zM4.5 20a1.5 1.5 0 1 1 3 0v4.499l4.5.001a1.5 1.5 0 1 1 0 3H4.5V20zM20 4.5h7.5V12a1.5 1.5 0 0 1-3 0V7.5H20a1.5 1.5 0 0 1 0-3zm0 20v-.001h4.5V20a1.5 1.5 0 1 1 3 0v7.5H20a1.5 1.5 0 0 1 0-3z"/></symbol><symbol id="icon-instagram" viewBox="0 0 32 32"><path d="M27.938 31.754H4.307a3.939 3.939 0 0 1-3.938-3.94V4.184A3.94 3.94 0 0 1 4.307.244h23.631a3.939 3.939 0 0 1 3.938 3.94v23.63a3.94 3.94 0 0 1-3.938 3.94zM16.123 9.894a6.1 6.1 0 0 0-5.536 3.545h-.006c-.01.022-.017.046-.027.068-.058.129-.108.262-.158.395-.023.065-.049.128-.07.192a5.51 5.51 0 0 0-.117.418c-.017.065-.037.13-.052.197a6.11 6.11 0 0 0-.075.453c-.009.062-.021.122-.028.185a6.104 6.104 0 0 0 6.069 6.757 6.104 6.104 0 0 0 6.069-6.757c-.007-.063-.02-.123-.028-.185a6.11 6.11 0 0 0-.075-.453c-.015-.066-.034-.132-.052-.197a4.87 4.87 0 0 0-.117-.418c-.021-.064-.047-.127-.07-.192a6.132 6.132 0 0 0-.158-.395c-.01-.022-.017-.046-.027-.068h-.006a6.1 6.1 0 0 0-5.536-3.545zm12.209-4.529c0-.87-.705-1.574-1.575-1.574h-3.151c-.87 0-1.575.704-1.575 1.574v3.152c0 .87.705 1.575 1.575 1.575h3.151c.87 0 1.575-.705 1.575-1.575V5.365zm0 8.074h-2.905c.224.816.345 1.675.345 2.561 0 5.329-4.32 9.648-9.649 9.648S6.474 21.329 6.474 16c0-.886.121-1.745.345-2.561H3.914v13.194c0 .871.705 1.577 1.575 1.577h21.268c.87 0 1.575-.705 1.575-1.577V13.439z"/></symbol><symbol id="icon-MAGNIFYING-GLASS" viewBox="0 0 32 32"><path d="M29.307 23.973a2.64 2.64 0 1 1-3.734 3.733l-7.738-7.736a10.493 10.493 0 0 1-5.355 1.47c-5.832 0-10.56-4.728-10.56-10.56S6.648.32 12.48.32c5.832 0 10.56 4.728 10.56 10.56 0 1.957-.542 3.784-1.47 5.355l7.738 7.738zM12.48 2.958a7.921 7.921 0 1 0 .002 15.842 7.921 7.921 0 0 0-.002-15.842z"/></symbol><symbol id="icon-pinterest" viewBox="0 0 21 26"><path d="M9.051 16.854c-.209.833-.42 1.706-.638 2.56-.215.842-.405 1.696-.718 2.47-.519 1.281-1.178 2.519-2.043 3.521-.575.667-.453.401-.626.365-.132-.028-.143-.157-.169-.345-.141-1.018-.045-2.195.007-3.339.06-1.304.334-2.388.589-3.471.484-2.064.946-4.087 1.435-6.164.032-.138.12-.366.09-.445-.222-.577-.366-1.095-.429-1.701a5.415 5.415 0 0 1 .139-1.943c.277-1.058.913-1.995 1.894-2.338.624-.216 1.315-.118 1.735.132.432.259.729.667.867 1.246.148.615.039 1.351-.08 1.891-.267 1.219-.618 2.134-.937 3.31-.158.583-.337 1.182-.189 1.812.136.578.437.976.847 1.275.426.31.93.479 1.625.455 1.228-.043 2.081-.828 2.651-1.568.913-1.185 1.465-2.784 1.675-4.686.067-.614.117-1.319.07-2.014-.088-1.284-.489-2.317-1.127-3.117-.606-.763-1.466-1.369-2.512-1.711-1.037-.338-2.472-.451-3.747-.233-2.318.397-3.952 1.714-4.915 3.533a7.082 7.082 0 0 0-.837 3.41c0 1.051.259 1.865.678 2.5.133.201.328.367.458.597.185.326-.028.811-.119 1.164-.11.425-.122 1.012-.618 1.022-.206.004-.464-.146-.638-.243-1.305-.721-2.097-2.033-2.422-3.734a8.921 8.921 0 0 1 0-3.238 9.232 9.232 0 0 1 4.396-6.144C6.559 1.023 7.818.56 9.35.337a16.62 16.62 0 0 1 1.605-.132 9.65 9.65 0 0 1 4.326.81 8.839 8.839 0 0 1 2.98 2.146c.838.915 1.448 1.979 1.834 3.309.202.692.398 1.432.398 2.287 0 .858-.181 1.613-.308 2.368-.474 2.828-1.819 5.141-3.838 6.458a6.643 6.643 0 0 1-1.754.809c-.667.194-1.428.34-2.243.283a4.586 4.586 0 0 1-1.983-.577c-.54-.305-.994-.679-1.316-1.244z"/></symbol><symbol id="icon-SHOPPING-CART" viewBox="0 0 32 32"><path d="M31.513 9.179h.002l-4.4 9.778a1.467 1.467 0 0 1-1.239.862l-12.672.844.732 2.091h13.797a2.934 2.934 0 1 1-2.933 2.935H11.111a2.933 2.933 0 1 1-2.933-2.935h2.651L5.183 6.622h-3.36a1.467 1.467 0 0 1 0-2.934h4.4c.64 0 1.179.412 1.38.983l.005-.002.853 2.441h21.717a1.466 1.466 0 0 1 1.335 2.068zm-22.025.865l2.711 7.746 12.603-.841 3.108-6.905H9.489z"/></symbol><symbol id="icon-twitter" viewBox="0 0 32 32"><path d="M21.554 3.201c2.503-.044 3.836.868 5.109 2.027 1.081-.092 2.485-.695 3.312-1.116l.804-.439c-.473 1.276-1.113 2.276-2.097 3.035-.219.167-.436.395-.71.502v.016c1.403-.014 2.56-.647 3.659-.991v.016c-.577.917-1.359 1.849-2.192 2.516l-1.009.801c.018 1.486-.022 2.903-.299 4.151-1.615 7.255-5.893 12.181-12.663 14.292-2.432.757-6.361 1.068-9.147.377-1.381-.342-2.629-.73-3.799-1.242a14.921 14.921 0 0 1-1.83-.944c-.19-.114-.378-.23-.567-.345.628.018 1.364.192 2.065.078.636-.102 1.259-.075 1.846-.203 1.462-.321 2.761-.746 3.878-1.401.543-.318 1.366-.689 1.751-1.147-.726.012-1.385-.156-1.924-.346-2.091-.738-3.308-2.096-4.101-4.135.634.07 2.459.235 2.886-.126-.798-.044-1.564-.506-2.113-.849-1.682-1.052-3.054-2.817-3.044-5.534l.662.314c.423.178.853.273 1.356.378.213.044.639.169.884.078h-.032c-.325-.378-.855-.63-1.183-1.038-1.079-1.34-2.09-3.404-1.451-5.863.162-.624.42-1.174.694-1.682l.032.015c.126.263.406.457.583.677.551.683 1.231 1.297 1.924 1.839 2.361 1.846 4.486 2.981 7.9 3.82.866.214 1.867.377 2.902.378-.29-.846-.197-2.215.031-3.034.576-2.06 1.825-3.543 3.659-4.34.438-.19.924-.329 1.435-.441l.789-.094z"/></symbol></defs></svg>