<svg aria-hidden="true" style="position: absolute; width: 0; height: 0; overflow: hidden;" version="1.1" xmlns="http://www.w3.org/2000/svg" xmlns:xlink="http://www.w3.org/1999/xlink">
<defs>
<symbol id="icon-alarm" viewBox="0 0 32 32">
<title>alarm</title>
<path d="M30.74 10.003c-1.584-3.696-4.547-6.66-8.243-8.243 1-0.787 2.258-1.26 3.629-1.26 3.244 0 5.874 2.63 5.874 5.874 0 1.371-0.473 2.629-1.26 3.629zM30.5 16.5c0 3.852-1.512 7.343-3.963 9.94l2.029 2.028c0.268 0.269 0.434 0.639 0.434 1.049 0 0.819-0.664 1.483-1.483 1.483-0.41 0-0.781-0.166-1.049-0.435l-2.178-2.178c-2.351 1.642-5.205 2.613-8.29 2.613-3.079 0-5.928-0.966-8.276-2.603l-2.163 2.163c-0.272 0.272-0.647 0.44-1.061 0.44-0.828 0-1.5-0.672-1.5-1.501 0-0.413 0.168-0.789 0.439-1.060l2.012-2.012c-2.443-2.595-3.951-6.082-3.951-9.927 0-8.008 6.492-14.5 14.5-14.5s14.5 6.492 14.5 14.5zM16 5c-6.351 0-11.5 5.148-11.5 11.5 0 6.351 5.149 11.5 11.5 11.5s11.5-5.149 11.5-11.5c0-6.352-5.149-11.5-11.5-11.5zM22 18h-6c-0.828 0-1.5-0.672-1.5-1.5v-8c0-0.828 0.672-1.5 1.5-1.5s1.5 0.672 1.5 1.5v6.499h4.5c0.828 0 1.5 0.672 1.5 1.501 0 0.828-0.672 1.5-1.5 1.5zM1.287 10.205c-0.804-1.020-1.287-2.305-1.287-3.705 0-3.314 2.686-6 6-6 1.4 0 2.685 0.483 3.706 1.287-3.775 1.617-6.802 4.644-8.419 8.418z"></path>
</symbol>
<symbol id="icon-book2" viewBox="0 0 32 32">
<title>book2</title>
<path  d="M31.065 25.889l-14.471 5.988c-0.182 0.079-0.383 0.123-0.594 0.123s-0.412-0.044-0.594-0.123l-14.471-5.988c-0.548-0.223-0.935-0.761-0.935-1.389v-23c0-0.829 0.672-1.5 1.5-1.5 0.203 0 0.397 0.041 0.573 0.114h0.001l0.002 0.001c0.004 0.001 0.009 0.004 0.013 0.005l13.911 5.756 13.911-5.756c0.004-0.001 0.009-0.004 0.013-0.005l0.003-0.001c0.176-0.073 0.37-0.114 0.573-0.114 0.828 0 1.5 0.671 1.5 1.5v23c0 0.628-0.387 1.166-0.935 1.389zM14.5 8.503l-11.5-4.759v19.753l11.5 4.759v-19.753zM29 3.744l-11.5 4.759v19.753l11.5-4.759v-19.753zM19.879 10.634l5.5-2.5c0.189-0.086 0.399-0.134 0.621-0.134 0.828 0 1.5 0.671 1.5 1.5 0 0.607-0.361 1.129-0.879 1.365v0l-5.5 2.5c-0.19 0.087-0.4 0.135-0.621 0.135-0.828 0-1.5-0.672-1.5-1.5 0-0.607 0.361-1.13 0.879-1.366zM19.879 16.134v0l5.5-2.5c0.189-0.086 0.399-0.134 0.621-0.134 0.828 0 1.5 0.671 1.5 1.499 0 0.608-0.361 1.13-0.879 1.366l-5.5 2.5c-0.19 0.086-0.4 0.135-0.621 0.135-0.828 0-1.5-0.672-1.5-1.5 0-0.607 0.361-1.13 0.879-1.366zM19.879 21.634v0l5.5-2.5c0.189-0.086 0.399-0.134 0.621-0.134 0.828 0 1.5 0.671 1.5 1.5 0 0.607-0.361 1.129-0.879 1.365v0l-5.5 2.5c-0.19 0.087-0.4 0.135-0.621 0.135-0.828 0-1.5-0.672-1.5-1.5 0-0.607 0.361-1.13 0.879-1.366zM6 8c0.221 0 0.431 0.048 0.621 0.134v0l5.5 2.5c0.518 0.236 0.879 0.759 0.879 1.366 0 0.828-0.672 1.5-1.5 1.5-0.222 0-0.432-0.048-0.621-0.135v0l-5.5-2.5c-0.518-0.236-0.879-0.758-0.879-1.365 0-0.829 0.672-1.5 1.5-1.5zM6 13.5c0.221 0 0.431 0.048 0.621 0.134v0l5.5 2.5c0.518 0.236 0.879 0.759 0.879 1.366 0 0.828-0.672 1.5-1.5 1.5-0.222 0-0.432-0.049-0.621-0.135v0l-5.5-2.5c-0.518-0.236-0.879-0.758-0.879-1.366 0-0.828 0.672-1.499 1.5-1.499zM6 19c0.221 0 0.431 0.048 0.621 0.134v0l5.5 2.5c0.518 0.236 0.879 0.759 0.879 1.366 0 0.828-0.672 1.5-1.5 1.5-0.222 0-0.432-0.048-0.621-0.135v0l-5.5-2.5c-0.518-0.236-0.879-0.758-0.879-1.365 0-0.829 0.672-1.5 1.5-1.5z"></path>
</symbol>
<symbol id="icon-computer" viewBox="0 0 32 32">
<title>computer</title>
<path  d="M30 25h-9.5v2.499l2 2.001v0.5h-13v-0.5l2-2.001v-2.499h-9.5c-0.828 0-1.5-0.672-1.5-1.501v-19.999c0-0.829 0.672-1.5 1.5-1.5h28c0.828 0 1.5 0.671 1.5 1.5v19.999c0 0.829-0.672 1.501-1.5 1.501zM29.5 4h-27v17h27v-17zM13 11c0.414 0 0.789 0.168 1.061 0.439v0l0.939 0.939 2.939-2.939c0.272-0.272 0.647-0.439 1.061-0.439 0.828 0 1.5 0.671 1.5 1.5 0 0.414-0.168 0.789-0.439 1.061v0l-4 4c-0.272 0.271-0.647 0.439-1.061 0.439s-0.789-0.168-1.061-0.439v0l-2-2.001c-0.271-0.271-0.439-0.646-0.439-1.060 0-0.829 0.672-1.5 1.5-1.5z"></path>
</symbol>
<symbol id="icon-facebook"  viewBox="0 0 32 32">
<title>facebook</title>
<path d="M22.879 0.245c0 1.817 0 5.072 0 5.072s-3.738-0.373-4.674 1.060c-0.512 0.783-0.208 3.077-0.254 4.724 1.632 0 3.327 0 4.959 0-0.418 1.925-0.719 3.23-1.028 4.896-1.412 0-3.958 0-3.958 0v15.759c0 0-4.673 0-6.87 0 0.001-4.858-0.001-10.526 0-15.697-1.067 0-1.856 0-2.923 0 0-1.817 0-3.14 0-4.958 1.035 0 1.855 0 2.891 0 0.148-3.626 0.203-7.217 2.005-9.046 2.023-2.057 3.954-1.809 9.852-1.809z"></path>
</symbol>
<symbol id="icon-graph" viewBox="0 0 32 32">
<title>graph</title>
<path  d="M30.5 32h-29c-0.828 0-1.5-0.672-1.5-1.5v-29.001c0-0.827 0.672-1.499 1.5-1.499h29c0.828 0 1.5 0.672 1.5 1.499v29.001c0 0.828-0.672 1.5-1.5 1.5zM29 3h-26v26h26v-26zM5.215 16.239v-0.002l4-2.498c0.229-0.141 0.497-0.222 0.785-0.222 0.311 0 0.6 0.095 0.84 0.257l0.006-0.008 6.631 4.42 7.638-5.391c0.248-0.182 0.554-0.29 0.885-0.29 0.828 0 1.5 0.672 1.5 1.5 0 0.5-0.245 0.943-0.622 1.216h0.001l-8.501 6c-0.246 0.179-0.55 0.284-0.878 0.284-0.321 0-0.618-0.101-0.861-0.272l-6.657-4.438-3.135 1.96c-0.241 0.165-0.533 0.262-0.847 0.262-0.828 0-1.5-0.672-1.5-1.5 0-0.541 0.286-1.014 0.715-1.278z"></path>
</symbol>
<symbol id="icon-home" viewBox="0 0 32 32">
<title>home</title>
<path d="M32 17c0 0.828-0.672 1.499-1.5 1.499-0.395 0-0.752-0.155-1.020-0.405l-0.003 0.004-13.477-13.476-13.447 13.446c-0.271 0.267-0.643 0.431-1.053 0.431-0.828 0-1.5-0.671-1.5-1.499 0-0.425 0.177-0.808 0.461-1.081l14.458-14.459c0.273-0.283 0.656-0.46 1.081-0.46v0 0c0 0 0 0 0.001 0 0.026 0 0.052 0 0.079 0.002 0.004 0 0.008 0.001 0.012 0.001 0.023 0.001 0.045 0.003 0.068 0.005 0.001 0 0.002 0 0.004 0.001 0.367 0.040 0.694 0.212 0.933 0.468l0.001-0.001 5.902 5.902v-1.378c0-0.829 0.671-1.5 1.5-1.5 0.828 0 1.5 0.671 1.5 1.5v4.378l5.598 5.598-0.004 0.004c0.25 0.268 0.406 0.625 0.406 1.020zM29 19.5v10.5c0 0.828-0.672 1.5-1.5 1.5h-3v-12h-6v12h-14c-0.828 0-1.5-0.672-1.5-1.5v-10.5l13-13 13 13zM13.5 19.5h-6v6h6v-6z"></path>
</symbol>
<symbol id="icon-image" viewBox="0 0 32 32">
<title>image</title>
<path d="M30.5 32h-29c-0.829 0-1.5-0.672-1.5-1.5v-29c0-0.829 0.671-1.5 1.5-1.5h29c0.828 0 1.5 0.671 1.5 1.5v29c0 0.828-0.672 1.5-1.5 1.5zM29 3h-26v26h26v-26zM6.5 4.5h5.5c0.828 0 1.5 0.671 1.5 1.5s-0.672 1.5-1.5 1.5v0h-4.5v4.5c0 0.828-0.672 1.5-1.5 1.5s-1.5-0.672-1.5-1.5v0-7.5h2zM4.5 20v0c0-0.829 0.672-1.501 1.5-1.501s1.5 0.672 1.5 1.501v0 4.499l4.5 0.001c0.828 0 1.5 0.671 1.5 1.5 0 0.828-0.672 1.5-1.5 1.5v0h-7.5v-7.5zM20 4.5v0h7.5v7.5c0 0.828-0.672 1.5-1.5 1.5s-1.5-0.672-1.5-1.5v0-4.5h-4.5c-0.828 0-1.5-0.672-1.5-1.5s0.672-1.5 1.5-1.5zM20 24.5v-0.001h4.5v-4.499c0-0.829 0.672-1.501 1.5-1.501s1.5 0.672 1.5 1.501v0 7.5h-7.5c-0.828 0-1.5-0.672-1.5-1.5 0-0.829 0.672-1.5 1.5-1.5z"></path>
</symbol>
<symbol id="icon-instagram" viewBox="0 0 32 32">
<title>instagram</title>
<path d="M27.938 31.754h-23.631c-2.175 0-3.938-1.764-3.938-3.94v-23.63c0-2.176 1.764-3.94 3.938-3.94h23.631c2.175 0 3.938 1.764 3.938 3.94v23.63c0 2.176-1.764 3.94-3.938 3.94zM16.123 9.894c-2.457 0-4.567 1.455-5.536 3.545h-0.006c-0.010 0.022-0.017 0.046-0.027 0.068-0.058 0.129-0.108 0.262-0.158 0.395-0.023 0.065-0.049 0.128-0.070 0.192-0.046 0.138-0.082 0.277-0.117 0.418-0.017 0.065-0.037 0.13-0.052 0.197-0.032 0.149-0.054 0.3-0.075 0.453-0.009 0.062-0.021 0.122-0.028 0.185-0.022 0.214-0.036 0.432-0.036 0.654 0 3.371 2.734 6.103 6.105 6.103s6.105-2.732 6.105-6.103c0-0.222-0.014-0.439-0.036-0.654-0.007-0.063-0.020-0.123-0.028-0.185-0.021-0.153-0.043-0.304-0.075-0.453-0.015-0.066-0.034-0.132-0.052-0.197-0.034-0.142-0.071-0.281-0.117-0.418-0.021-0.064-0.047-0.127-0.070-0.192-0.049-0.133-0.1-0.266-0.158-0.395-0.010-0.022-0.017-0.046-0.027-0.068h-0.006c-0.969-2.090-3.079-3.545-5.536-3.545zM28.332 5.365c0-0.87-0.705-1.574-1.575-1.574h-3.151c-0.87 0-1.575 0.704-1.575 1.574v3.152c0 0.87 0.705 1.575 1.575 1.575h3.151c0.87 0 1.575-0.705 1.575-1.575v-3.152zM28.332 13.439h-2.905c0.224 0.816 0.345 1.675 0.345 2.561 0 5.329-4.32 9.648-9.649 9.648s-9.649-4.319-9.649-9.648c0-0.886 0.121-1.745 0.345-2.561h-2.905v13.194c0 0.871 0.705 1.577 1.575 1.577h21.268c0.87 0 1.575-0.705 1.575-1.577v-13.194z"></path>
</symbol>
<symbol id="icon-MAGNIFYING-GLASS" viewBox="0 0 32 32">
<title>MAGNIFYING-GLASS</title>
<path d="M29.307 23.973c0.477 0.477 0.773 1.138 0.773 1.867 0 1.458-1.182 2.64-2.64 2.64-0.73 0-1.389-0.296-1.867-0.774v0l-7.738-7.736c-1.571 0.928-3.398 1.47-5.355 1.47-5.832 0-10.56-4.728-10.56-10.56s4.728-10.56 10.56-10.56c5.832 0 10.56 4.728 10.56 10.56 0 1.957-0.542 3.784-1.47 5.355l7.738 7.738zM12.48 2.958c-4.374 0-7.92 3.547-7.92 7.922s3.546 7.92 7.92 7.92c4.374 0 7.92-3.546 7.92-7.92s-3.546-7.922-7.92-7.922z"></path>
</symbol>
<symbol id="icon-pinterest" viewBox="0 0 21 26">
<title>pinterest</title>
<path d="M9.051,16.854 C8.842,17.687 8.631,18.560 8.413,19.414 C8.198,20.256 8.008,21.110 7.695,21.884 C7.176,23.165 6.517,24.403 5.652,25.405 C5.077,26.072 5.199,25.806 5.026,25.770 C4.894,25.742 4.883,25.613 4.857,25.425 C4.716,24.407 4.812,23.230 4.864,22.086 C4.924,20.782 5.198,19.698 5.453,18.615 C5.937,16.551 6.399,14.528 6.888,12.451 C6.920,12.313 7.008,12.085 6.978,12.006 C6.756,11.429 6.612,10.911 6.549,10.305 C6.476,9.610 6.532,8.961 6.688,8.362 C6.965,7.304 7.601,6.367 8.582,6.024 C9.206,5.808 9.897,5.906 10.317,6.156 C10.749,6.415 11.046,6.823 11.184,7.402 C11.332,8.017 11.223,8.753 11.104,9.293 C10.837,10.512 10.486,11.427 10.167,12.603 C10.009,13.186 9.830,13.785 9.978,14.415 C10.114,14.993 10.415,15.391 10.825,15.690 C11.251,16.000 11.755,16.169 12.450,16.145 C13.678,16.102 14.531,15.317 15.101,14.577 C16.014,13.392 16.566,11.793 16.776,9.891 C16.843,9.277 16.893,8.572 16.846,7.877 C16.758,6.593 16.357,5.560 15.719,4.760 C15.113,3.997 14.253,3.391 13.207,3.049 C12.170,2.711 10.735,2.598 9.460,2.816 C7.142,3.213 5.508,4.530 4.545,6.349 C4.041,7.301 3.708,8.396 3.708,9.759 C3.708,10.810 3.967,11.624 4.386,12.259 C4.519,12.460 4.714,12.626 4.844,12.856 C5.029,13.182 4.816,13.667 4.725,14.020 C4.615,14.445 4.603,15.032 4.107,15.042 C3.901,15.046 3.643,14.896 3.469,14.799 C2.164,14.078 1.372,12.766 1.047,11.065 C0.849,10.031 0.850,8.826 1.047,7.827 C1.237,6.860 1.591,5.969 1.984,5.246 C2.798,3.743 3.991,2.541 5.443,1.683 C6.559,1.023 7.818,0.560 9.350,0.337 C9.858,0.263 10.384,0.232 10.955,0.205 C12.623,0.127 14.139,0.505 15.281,1.015 C16.486,1.554 17.448,2.271 18.261,3.161 C19.099,4.076 19.709,5.140 20.095,6.470 C20.297,7.162 20.493,7.902 20.493,8.757 C20.493,9.615 20.312,10.370 20.185,11.125 C19.711,13.953 18.366,16.266 16.347,17.583 C15.858,17.901 15.266,18.196 14.593,18.392 C13.926,18.586 13.165,18.732 12.350,18.675 C11.559,18.621 10.911,18.406 10.367,18.098 C9.827,17.793 9.373,17.419 9.051,16.854 Z"></path>
</symbol>
<symbol id="icon-SHOPPING-CART" viewBox="0 0 32 32">
<title>SHOPPING-CART</title>
<path d="M31.513 9.179h0.002l-4.4 9.778c-0.217 0.482-0.686 0.825-1.239 0.862v0l-12.672 0.844 0.732 2.091h13.797c1.62 0 2.933 1.314 2.933 2.935 0 1.62-1.314 2.933-2.933 2.933s-2.933-1.314-2.933-2.933h-13.689c0 1.62-1.314 2.933-2.933 2.933s-2.933-1.314-2.933-2.933c0-1.621 1.314-2.935 2.933-2.935h2.651l-5.646-16.132h-3.36c-0.811 0-1.467-0.658-1.467-1.467 0-0.811 0.656-1.467 1.467-1.467h4.4c0.64 0 1.179 0.412 1.38 0.983l0.005-0.002 0.853 2.441h21.717c0.811 0 1.467 0.656 1.467 1.467 0 0.213-0.048 0.416-0.132 0.601zM9.488 10.044l2.711 7.746 12.603-0.841 3.108-6.905h-18.421z"></path>
</symbol>
<symbol id="icon-twitter" viewBox="0 0 32 32">
<title>twitter</title>
<path d="M21.554 3.201c2.503-0.044 3.836 0.868 5.109 2.027 1.081-0.092 2.485-0.695 3.312-1.116 0.267-0.145 0.535-0.293 0.804-0.439-0.473 1.276-1.113 2.276-2.097 3.035-0.219 0.167-0.436 0.395-0.71 0.502 0 0.005 0 0.011 0 0.016 1.403-0.014 2.56-0.647 3.659-0.991 0 0.005 0 0.011 0 0.016-0.577 0.917-1.359 1.849-2.192 2.516-0.336 0.267-0.673 0.534-1.009 0.801 0.018 1.486-0.022 2.903-0.299 4.151-1.615 7.255-5.893 12.181-12.663 14.292-2.432 0.757-6.361 1.068-9.147 0.377-1.381-0.342-2.629-0.73-3.799-1.242-0.651-0.284-1.254-0.592-1.83-0.944-0.19-0.114-0.378-0.23-0.567-0.345 0.628 0.018 1.364 0.192 2.065 0.078 0.636-0.102 1.259-0.075 1.846-0.203 1.462-0.321 2.761-0.746 3.878-1.401 0.543-0.318 1.366-0.689 1.751-1.147-0.726 0.012-1.385-0.156-1.924-0.346-2.091-0.738-3.308-2.096-4.101-4.135 0.634 0.070 2.459 0.235 2.886-0.126-0.798-0.044-1.564-0.506-2.113-0.849-1.682-1.052-3.054-2.817-3.044-5.534 0.222 0.105 0.442 0.209 0.662 0.314 0.423 0.178 0.853 0.273 1.356 0.378 0.213 0.044 0.639 0.169 0.884 0.078-0.011 0-0.021 0-0.032 0-0.325-0.378-0.855-0.63-1.183-1.038-1.079-1.34-2.090-3.404-1.451-5.863 0.162-0.624 0.42-1.174 0.694-1.682 0.011 0.005 0.021 0.010 0.032 0.015 0.126 0.263 0.406 0.457 0.583 0.677 0.551 0.683 1.231 1.297 1.924 1.839 2.361 1.846 4.486 2.981 7.9 3.82 0.866 0.214 1.867 0.377 2.902 0.378-0.29-0.846-0.197-2.215 0.031-3.034 0.576-2.060 1.825-3.543 3.659-4.34 0.438-0.19 0.924-0.329 1.435-0.441 0.263-0.031 0.526-0.063 0.789-0.094z"></path>
</symbol>
</defs>
</svg>
